# xmcd
# Copyright (C) 1995-1998 Ti Kan
#
# Track frame offsets:
#       150
#       99200
#       158764
#       229716
#
# Disc length: 3681 seconds
#
# Revision: 0
# Processed by: cddbd v1.5.2PL0 Copyright (c) Steve Scherf et al.
# Submitted via: CD-Transfer v1.0
#
DISCID=1f0e5f04
DTITLE=Michael Friedel - 
DYEAR=1900
DGENRE=
TTITLE0=Hitclub 30.01.11 - 005
TTITLE1=Hitclub 30.01.11 - 006
TTITLE2=Hitclub 30.01.11 - 007
TTITLE3=Hitclub 30.01.11 - 008
EXTD=
EXTT0=
EXTT1=
EXTT2=
EXTT3=
PLAYORDER=
